<svg xmlns="http://www.w3.org/2000/svg" viewBox="0 0 48 48" id="Diamond"><g color="#000" font-family="sans-serif" font-weight="400" fill="#34a853" class="color000000 svgShape"><path style="line-height:normal;text-indent:0;text-align:start;text-decoration-line:none;text-decoration-style:solid;text-decoration-color:#000;text-transform:none;block-progression:tb;white-space:normal;isolation:auto;mix-blend-mode:normal;solid-color:#000;solid-opacity:1" d="M24.008 1008.874 1.5 1047.84l45 .01-.518-.9-21.974-38.076zm-.001 2.4 20.416 35.375-40.844-.01 20.428-35.368z" overflow="visible" transform="translate(0 -1004.362)" fill="#34a853" class="color000000 svgShape"></path><path fill-rule="evenodd" style="line-height:normal;text-indent:0;text-align:start;text-decoration-line:none;text-decoration-style:solid;text-decoration-color:#000;text-transform:none;block-progression:tb;white-space:normal;isolation:auto;mix-blend-mode:normal;solid-color:#000;solid-opacity:1" d="M23.387 1010.373v37h1.2v-37h-1.2z" overflow="visible" transform="translate(0 -1004.362)" fill="#34a853" class="color000000 svgShape"></path><path fill-rule="evenodd" style="line-height:normal;text-indent:0;text-align:start;text-decoration-line:none;text-decoration-style:solid;text-decoration-color:#000;text-transform:none;block-progression:tb;white-space:normal;isolation:auto;mix-blend-mode:normal;solid-color:#000;solid-opacity:1" d="m13.143 1027.762-.604 1.037 32.215 18.746.603-1.04-32.214-18.743z" overflow="visible" transform="translate(0 -1004.362)" fill="#34a853" class="color000000 svgShape"></path><path fill-rule="evenodd" style="line-height:normal;text-indent:0;text-align:start;text-decoration-line:none;text-decoration-style:solid;text-decoration-color:#000;text-transform:none;block-progression:tb;white-space:normal;isolation:auto;mix-blend-mode:normal;solid-color:#000;solid-opacity:1" d="m34.857 1027.762-32.214 18.744.603 1.039 32.215-18.746-.604-1.037z" overflow="visible" transform="translate(0 -1004.362)" fill="#34a853" class="color000000 svgShape"></path><path fill-rule="evenodd" style="line-height:normal;text-indent:0;text-align:start;text-decoration-line:none;text-decoration-style:solid;text-decoration-color:#000;text-transform:none;block-progression:tb;white-space:normal;isolation:auto;mix-blend-mode:normal;solid-color:#000;solid-opacity:1" d="m24.441 1011.234-1.166.278 4.914 20.64 15.254 14.655.83-.866-14.998-14.41-4.834-20.297zm-.445 28.239-20.342 6.412.36 1.144 19.986-6.3 19.969 6.123.351-1.149-20.324-6.23z" overflow="visible" transform="translate(0 -1004.362)" fill="#34a853" class="color000000 svgShape"></path><path fill-rule="evenodd" style="line-height:normal;text-indent:0;text-align:start;text-decoration-line:none;text-decoration-style:solid;text-decoration-color:#000;text-transform:none;block-progression:tb;white-space:normal;isolation:auto;mix-blend-mode:normal;solid-color:#000;solid-opacity:1" d="m23.559 1011.234-4.834 20.297-14.998 14.41.83.866 15.254-14.655 4.914-20.64-1.166-.278z" overflow="visible" transform="translate(0 -1004.362)" fill="#34a853" class="color000000 svgShape"></path></g></svg>