<?xml version="1.0" standalone="no"?>
<!DOCTYPE svg PUBLIC "-//W3C//DTD SVG 20010904//EN"
 "http://www.w3.org/TR/2001/REC-SVG-20010904/DTD/svg10.dtd">
<svg version="1.0" xmlns="http://www.w3.org/2000/svg"
 width="2000.000000pt" height="2000.000000pt" viewBox="0 0 2000.000000 2000.000000"
 preserveAspectRatio="xMidYMid meet">
<metadata>
Created by potrace 1.14, written by Peter Selinger 2001-2017
</metadata>
<g transform="translate(0.000000,2000.000000) scale(0.100000,-0.100000)"
fill="#000000" stroke="none">
<path d="M0 10000 l0 -10000 10000 0 10000 0 0 10000 0 10000 -10000 0 -10000
0 0 -10000z m10140 6420 c142 -13 312 -50 450 -99 96 -35 4379 -1998 4530
-2077 132 -69 286 -204 374 -328 60 -83 111 -192 138 -296 l23 -85 0 -3530 0
-3530 -22 -87 c-12 -48 -36 -117 -52 -152 -70 -154 -218 -320 -381 -427 -62
-41 -681 -330 -2305 -1076 -1221 -561 -2251 -1032 -2290 -1046 -210 -78 -394
-111 -615 -110 -193 1 -342 26 -526 87 -189 64 -4544 2066 -4664 2145 -163
107 -311 273 -381 427 -16 35 -40 104 -52 152 l-22 87 0 3530 0 3530 23 85
c27 104 78 213 138 296 88 124 242 259 374 328 170 89 4440 2045 4546 2082
241 85 471 115 714 94z"/>
<path d="M7645 14501 c-1286 -593 -2345 -1083 -2353 -1087 -9 -6 727 -350
2347 -1096 l2361 -1086 2360 1086 c1298 597 2357 1089 2352 1093 -13 13 -4701
2169 -4714 2169 -7 -1 -1066 -486 -2353 -1079z m2816 -881 c238 -111 437 -204
441 -208 8 -8 -878 -422 -902 -422 -24 0 -910 414 -902 422 20 20 899 417 913
413 9 -3 211 -95 450 -205z"/>
<path d="M5272 9635 l3 -3015 859 -425 c473 -234 863 -425 868 -425 4 0 8 280
8 623 l0 622 378 261 377 261 5 -1079 5 -1078 923 -460 922 -459 0 1552 0
1552 -520 260 c-286 143 -520 262 -520 265 0 3 234 160 520 350 l519 345 1
851 0 851 -912 453 c-502 249 -919 455 -925 457 -10 4 -13 -127 -14 -633 l0
-639 -371 -255 c-203 -140 -374 -256 -379 -258 -5 -2 -9 450 -9 1085 l0 1088
-865 433 c-476 237 -867 432 -870 432 -3 0 -4 -1357 -3 -3015z"/>
<path d="M13993 12285 l-733 -363 -2 -1157 -3 -1156 -375 259 -375 259 -5 706
-5 705 -1050 -520 c-577 -285 -1053 -522 -1058 -527 -4 -4 -6 -1360 -5 -3014
l3 -3007 725 359 725 358 5 1202 5 1202 378 -261 377 -261 0 -745 c0 -481 3
-744 10 -744 5 0 484 236 1065 524 l1055 524 0 3011 c0 1656 -1 3011 -2 3010
-2 0 -333 -164 -735 -364z"/>
</g>
</svg>
