<?xml version="1.0" standalone="no"?>
<!DOCTYPE svg PUBLIC "-//W3C//DTD SVG 20010904//EN"
 "http://www.w3.org/TR/2001/REC-SVG-20010904/DTD/svg10.dtd">
<svg version="1.0" xmlns="http://www.w3.org/2000/svg"
 width="1000.000000pt" height="1000.000000pt" viewBox="0 0 1000.000000 1000.000000"
 preserveAspectRatio="xMidYMid meet">
<metadata>
Created by potrace 1.14, written by Peter Selinger 2001-2017
</metadata>
<g transform="translate(0.000000,1000.000000) scale(0.100000,-0.100000)"
fill="#000000" stroke="none">
<path d="M0 5000 l0 -5000 5000 0 5000 0 0 5000 0 5000 -5000 0 -5000 0 0
-5000z m5144 2420 c245 -18 440 -69 616 -161 125 -65 206 -127 312 -238 255
-263 416 -664 485 -1201 24 -192 24 -778 0 -970 -60 -469 -192 -839 -396
-1105 -108 -142 -297 -294 -453 -364 -103 -46 -249 -90 -377 -113 -166 -30
-496 -30 -662 0 -217 39 -384 103 -540 207 -372 248 -600 705 -686 1375 -24
192 -24 778 0 970 69 537 230 938 485 1201 106 111 187 173 312 238 200 105
420 155 735 169 17 1 93 -3 169 -8z m1686 -4735 l0 -105 -1830 0 -1830 0 0
105 0 105 1830 0 1830 0 0 -105z"/>
<path d="M4825 6726 c-138 -33 -214 -74 -297 -165 -126 -136 -199 -376 -218
-716 -13 -222 -12 -803 0 -1025 30 -534 189 -808 507 -875 87 -19 279 -19 366
0 318 67 477 341 507 875 12 222 13 803 0 1025 -23 419 -127 681 -320 805 -91
58 -187 82 -345 86 -96 3 -159 -1 -200 -10z m350 -1074 c47 -12 70 -26 107
-63 60 -60 78 -118 78 -254 0 -135 -17 -192 -78 -255 -64 -65 -126 -84 -282
-84 -156 0 -218 19 -282 84 -61 63 -78 120 -78 255 0 136 18 194 79 255 38 38
59 50 111 63 36 9 81 19 100 21 59 6 182 -4 245 -22z"/>
</g>
</svg>
